<svg version="1.1" id="Layer_1" xmlns="http://www.w3.org/2000/svg" xmlns:xlink="http://www.w3.org/1999/xlink" x="0px" y="0px"
	 width="100%" viewBox="0 0 640 512" enable-background="new 0 0 640 512" xml:space="preserve">
<path fill="#000000" opacity="1.000000" stroke="none" 
	d="
M500.459625,378.438171 
	C512.713318,376.484375 524.384766,374.317047 535.402893,369.242859 
	C560.342957,357.757263 577.477966,338.941681 588.343262,314.038574 
	C588.674011,313.280487 588.830627,312.420410 589.274597,311.742981 
	C590.265747,310.230469 591.687561,309.463867 593.547119,309.875000 
	C595.624146,310.334290 595.342224,312.091278 595.289856,313.495514 
	C595.044128,320.084351 592.885742,326.214966 590.026917,332.018341 
	C583.548218,345.169800 575.673523,357.375732 565.895508,368.430695 
	C544.728699,392.361847 517.884399,405.098724 486.831451,410.522430 
	C461.278198,414.985535 437.343079,409.731720 414.257111,399.488495 
	C403.032379,394.508087 393.057098,387.336121 383.656952,379.205933 
	C369.084747,366.602509 359.182495,350.492828 348.404694,334.988770 
	C331.252502,310.315125 314.013458,285.708435 296.353333,261.388824 
	C283.183075,243.252258 270.496429,224.708374 256.359314,207.355789 
	C238.257767,185.137054 215.165131,170.485809 185.923538,167.346695 
	C159.959976,164.559494 135.801498,169.726562 113.821655,184.129776 
	C95.738640,195.979401 83.188110,212.375381 74.567184,231.990875 
	C74.171051,232.892227 73.862442,233.866165 73.297997,234.651749 
	C72.348900,235.972748 70.955322,236.522705 69.339813,236.137466 
	C67.605560,235.723892 67.789841,234.224197 67.671371,232.922592 
	C67.362007,229.523849 68.170128,226.269989 69.354820,223.175049 
	C75.209915,207.878876 83.292633,193.882629 93.549164,181.064453 
	C104.643570,167.199127 118.122299,156.149155 133.817917,148.257874 
	C150.149933,140.046646 167.131638,133.705170 186.044876,133.488403 
	C206.234100,133.257034 225.718002,135.616272 244.430786,143.511642 
	C256.801331,148.731079 267.694824,156.108719 278.076294,164.541397 
	C295.871948,178.996475 306.618683,198.894379 319.430725,217.175247 
	C342.763580,250.467773 366.143738,283.721039 390.651398,316.165741 
	C399.442657,327.804169 407.272125,340.240082 418.315216,350.028931 
	C434.942902,364.768127 453.689270,374.958771 476.131683,377.820282 
	C484.130829,378.840240 492.052704,378.409637 500.459625,378.438171 
z"/>
<path fill="#000000" opacity="1.000000" stroke="none" 
	d="
M528.041565,173.083511 
	C515.078308,168.295868 501.893127,166.382355 488.639557,166.516373 
	C465.236450,166.753021 444.284485,174.605103 425.506714,188.686737 
	C412.612732,198.356018 403.844696,211.438293 394.482697,224.101562 
	C384.804871,237.192001 375.077209,250.245789 365.325317,263.281158 
	C362.909790,266.509918 359.072418,266.269348 356.267456,262.503265 
	C351.705627,256.378357 347.384399,250.074371 342.953064,243.852051 
	C341.510834,241.826965 340.109344,239.767746 338.571899,237.816574 
	C334.795990,233.024521 334.573029,229.283661 338.330322,224.302475 
	C347.647491,211.950348 355.404633,198.422287 364.979370,186.371506 
	C387.165100,158.448654 414.738068,138.651627 451.469574,134.584946 
	C478.307159,131.613647 504.204407,134.957321 528.401489,147.263443 
	C542.222412,154.292465 554.164673,163.913651 564.438660,175.812485 
	C571.621643,184.131393 578.789185,192.300980 584.271484,201.886505 
	C588.838318,209.871399 592.073975,218.372513 594.957520,227.044693 
	C595.805542,229.595337 595.225403,231.810822 592.655701,232.875458 
	C589.846497,234.039261 588.806763,231.746765 587.864563,229.791672 
	C581.154419,215.868179 572.283997,203.535751 560.926453,193.022263 
	C551.424316,184.226273 540.531189,177.713226 528.041565,173.083511 
z"/>
<path fill="#000000" opacity="1.000000" stroke="none" 
	d="
M306.602936,282.193268 
	C312.731140,290.712311 318.634735,298.919922 324.556824,307.114136 
	C327.974060,311.842560 328.087677,316.207672 324.469788,321.201416 
	C315.028534,334.233093 306.770447,348.193329 296.621582,360.624847 
	C280.235504,380.696564 260.467316,396.702759 235.420349,405.229736 
	C208.893555,414.260620 182.389648,412.871246 155.685501,405.926666 
	C138.499725,401.457397 124.382950,391.935669 110.826851,381.025970 
	C92.058678,365.921631 79.562622,346.413147 70.368851,324.556763 
	C68.353241,319.765045 66.506447,314.630249 68.297951,309.118988 
	C71.805984,308.553131 73.417740,310.103821 74.801689,313.143036 
	C85.650215,336.966888 101.704681,356.222351 125.433342,368.047638 
	C140.738205,375.674866 157.281342,380.109192 174.354965,379.424408 
	C199.801270,378.403839 222.501221,369.354614 242.060455,352.648804 
	C256.168396,340.598999 265.579956,324.847992 276.476349,310.257141 
	C283.132996,301.343506 289.619843,292.303101 296.190796,283.325409 
	C299.605042,278.660675 301.411163,278.410980 306.602936,282.193268 
z"/>
<path fill="#000000" opacity="1.000000" stroke="none" 
	d="
M329.326385,393.073364 
	C332.356873,408.158569 323.164215,418.390198 313.876434,421.065216 
	C298.973999,425.357269 288.087372,420.329773 282.184235,407.834076 
	C276.161865,395.086090 283.435181,378.825897 296.658691,374.204102 
	C309.500549,369.715607 325.379852,376.334290 329.025024,391.187317 
	C329.143219,391.669006 329.211090,392.163086 329.326385,393.073364 
z"/>
<path fill="#000000" opacity="1.000000" stroke="none" 
	d="
M337.916870,383.046082 
	C346.778351,372.157471 357.140930,371.669586 369.114441,375.740631 
	C379.416199,379.243256 383.714874,395.910217 382.038635,403.597656 
	C379.748016,414.102661 372.116211,421.021301 361.605499,422.352692 
	C351.183716,423.672821 340.158386,418.807861 335.931946,409.844177 
	C331.751862,400.978851 332.404022,391.868408 337.916870,383.046082 
z"/>
<path fill="#000000" opacity="1.000000" stroke="none" 
	d="
M326.155243,134.161530 
	C329.334076,143.747803 331.902771,152.753647 325.375305,161.919052 
	C315.844147,175.302109 295.834808,175.996628 285.656433,162.893417 
	C276.603363,151.238876 279.082458,131.874588 296.209930,124.124832 
	C305.063812,120.118675 320.244843,125.428040 326.155243,134.161530 
z"/>
<path fill="#000000" opacity="1.000000" stroke="none" 
	d="
M355.347839,105.825958 
	C354.998840,120.377098 340.897858,129.313248 325.493896,126.222443 
	C308.865509,122.885971 301.099121,100.945381 312.001190,87.622208 
	C321.876587,75.553665 344.771271,75.434631 352.244995,87.988655 
	C355.446747,93.366791 355.618347,99.335571 355.347839,105.825958 
z"/>
<path fill="#000000" opacity="1.000000" stroke="none" 
	d="
M343.333862,127.185043 
	C349.693146,120.987267 357.268799,123.228363 363.935791,124.264359 
	C376.121246,126.157875 380.982422,133.429932 381.466644,145.786301 
	C381.819885,154.800461 380.361267,162.607193 372.381531,167.973022 
	C364.387054,173.348770 355.596008,173.877014 347.343872,169.779037 
	C339.054474,165.662537 333.263763,159.146988 333.528992,148.643417 
	C333.746429,140.032288 335.699890,132.630066 343.333862,127.185043 
z"/>
</svg>