<svg width="200" height="161" viewBox="0 0 200 161" fill="none" xmlns="http://www.w3.org/2000/svg">
<path d="M156.394 119.001C160.223 118.387 163.871 117.705 167.314 116.11C175.108 112.498 180.462 106.581 183.858 98.7504C183.961 98.512 184.01 98.2416 184.149 98.0286C184.458 97.553 184.903 97.3119 185.484 97.4412C186.133 97.5856 186.045 98.1381 186.028 98.5797C185.952 100.652 185.277 102.579 184.384 104.404C182.359 108.54 179.898 112.378 176.843 115.854C170.228 123.379 161.839 127.385 152.135 129.09C144.15 130.494 136.67 128.841 129.456 125.62C125.948 124.054 122.831 121.799 119.893 119.243C115.339 115.279 112.245 110.214 108.877 105.338C103.517 97.5796 98.1296 89.8419 92.6108 82.1945C88.4951 76.4914 84.5305 70.6603 80.1127 65.2037C74.4559 58.2169 67.2395 53.6098 58.1015 52.6227C49.9879 51.7463 42.4384 53.3711 35.5697 57.9002C29.9187 61.6264 25.9967 66.7821 23.3026 72.9503C23.1788 73.2337 23.0824 73.54 22.906 73.787C22.6094 74.2024 22.1739 74.3753 21.6691 74.2542C21.1271 74.1241 21.1847 73.6525 21.1477 73.2433C21.051 72.1745 21.3035 71.1513 21.6738 70.1781C23.5035 65.3682 26.0293 60.967 29.2345 56.9363C32.7015 52.5763 36.9136 49.1016 41.8185 46.6202C46.9222 44.0381 52.229 42.044 58.1394 41.9759C64.4485 41.9031 70.5373 42.645 76.385 45.1277C80.2508 46.769 83.655 49.0889 86.8992 51.7406C92.4604 56.286 95.8187 62.543 99.8225 68.2915C107.114 78.7604 114.42 89.217 122.079 99.4193C124.826 103.079 127.273 106.99 130.724 110.068C135.92 114.702 141.778 117.907 148.792 118.807C151.291 119.128 153.767 118.992 156.394 119.001Z" fill="#EAEAEA"/>
<path d="M165.013 54.4267C160.962 52.9212 156.842 52.3195 152.7 52.3616C145.387 52.4361 138.839 54.9052 132.971 59.3332C128.942 62.3737 126.202 66.4875 123.276 70.4695C120.252 74.5858 117.212 78.6906 114.165 82.7896C113.41 83.8049 112.211 83.7293 111.334 82.545C109.908 80.619 108.558 78.6367 107.173 76.6801C106.723 76.0433 106.285 75.3958 105.804 74.7822C104.624 73.2753 104.555 72.099 105.729 70.5327C108.64 66.6485 111.064 62.3946 114.057 58.6052C120.99 49.8247 129.606 43.5995 141.085 42.3207C149.471 41.3864 157.564 42.4378 165.126 46.3075C169.445 48.5178 173.177 51.5432 176.388 55.2848C178.632 57.9007 180.872 60.4697 182.585 63.4839C184.012 65.9948 185.024 68.668 185.925 71.395C186.19 72.197 186.008 72.8937 185.205 73.2285C184.328 73.5944 184.003 72.8735 183.708 72.2588C181.611 67.8805 178.839 64.0025 175.29 60.6965C172.321 57.9306 168.916 55.8825 165.013 54.4267Z" fill="#EAEAEA"/>
<path d="M95.8132 88.7366C97.7283 91.4154 99.5732 93.9964 101.424 96.5731C102.492 98.0599 102.527 99.4325 101.397 101.003C98.4462 105.101 95.8656 109.491 92.6941 113.4C87.5734 119.711 81.3959 124.744 73.5687 127.426C65.2791 130.266 56.9966 129.829 48.6515 127.645C43.281 126.24 38.8695 123.245 34.6332 119.815C28.7682 115.065 24.8631 108.931 21.9901 102.058C21.3602 100.551 20.7831 98.9365 21.3429 97.2035C22.4392 97.0255 22.9429 97.5132 23.3753 98.4689C26.7655 105.96 31.7825 112.015 39.1977 115.734C43.9805 118.132 49.1502 119.527 54.4857 119.311C62.4377 118.99 69.5314 116.145 75.6437 110.892C80.0524 107.102 82.9936 102.15 86.3987 97.5614C88.4789 94.7585 90.506 91.9157 92.5594 89.0926C93.6264 87.6258 94.1908 87.5473 95.8132 88.7366Z" fill="#EAEAEA"/>
<path d="M102.914 123.603C103.862 128.347 100.989 131.564 98.0864 132.405C93.4294 133.755 90.0273 132.174 88.1826 128.245C86.3006 124.236 88.5735 119.123 92.7058 117.67C96.7189 116.258 101.681 118.34 102.82 123.01C102.857 123.162 102.878 123.317 102.914 123.603Z" fill="#EAEAEA"/>
<path d="M105.599 120.45C108.368 117.026 111.606 116.873 115.348 118.153C118.567 119.254 119.911 124.495 119.387 126.913C118.671 130.216 116.286 132.392 113.002 132.81C109.745 133.225 106.299 131.695 104.979 128.877C103.672 126.089 103.876 123.224 105.599 120.45Z" fill="#EAEAEA"/>
<path d="M101.923 42.1875C102.917 45.2019 103.719 48.0338 101.679 50.9159C98.7009 55.1243 92.448 55.3427 89.2673 51.2223C86.4382 47.5575 87.2129 41.4683 92.5653 39.0314C95.3321 37.7717 100.076 39.4412 101.923 42.1875Z" fill="#EAEAEA"/>
<path d="M111.047 33.2773C110.938 37.853 106.531 40.663 101.717 39.6911C96.5209 38.6419 94.0939 31.7426 97.5008 27.5531C100.587 23.7581 107.741 23.7207 110.077 27.6683C111.078 29.3595 111.131 31.2364 111.047 33.2773Z" fill="#EAEAEA"/>
<path d="M107.291 39.9937C109.279 38.0448 111.646 38.7495 113.729 39.0753C117.537 39.6707 119.057 41.9574 119.208 45.8429C119.318 48.6775 118.862 51.1323 116.369 52.8196C113.87 54.51 111.123 54.6761 108.544 53.3875C105.954 52.0931 104.144 50.0442 104.227 46.7414C104.295 44.0336 104.906 41.7059 107.291 39.9937Z" fill="#EAEAEA"/>
</svg>
