<svg width="28" height="27" viewBox="0 0 28 27" fill="none" xmlns="http://www.w3.org/2000/svg">
<path d="M19.1943 3.5835C19.0665 3.45538 18.9147 3.35373 18.7476 3.28438C18.5804 3.21502 18.4013 3.17932 18.2203 3.17932C18.0393 3.17932 17.8602 3.21502 17.693 3.28438C17.5259 3.35373 17.3741 3.45538 17.2463 3.5835L8.10019 12.7296C7.99816 12.8314 7.91721 12.9523 7.86198 13.0855C7.80675 13.2186 7.77832 13.3614 7.77832 13.5055C7.77832 13.6496 7.80675 13.7924 7.86198 13.9255C7.91721 14.0587 7.99816 14.1796 8.10019 14.2814L17.2463 23.4275C17.7856 23.9668 18.655 23.9668 19.1943 23.4275C19.7336 22.8882 19.7336 22.0187 19.1943 21.4794L11.2259 13.5L19.2053 5.52058C19.7336 4.99228 19.7336 4.1118 19.1943 3.5835Z" fill="#1E232C" stroke="#1E232C" stroke-width="0.2"/>
</svg>
