<svg width="23" height="22" viewBox="0 0 23 22" fill="none" xmlns="http://www.w3.org/2000/svg">
<path d="M21.2153 10.1215C20.9747 10.1215 20.744 10.0259 20.5738 9.8558C20.4037 9.68568 20.3081 9.45494 20.3081 9.21436C20.3062 7.29025 19.541 5.4455 18.1805 4.08495C16.8199 2.7244 14.9752 1.9592 13.0511 1.95728C12.8105 1.95728 12.5797 1.86171 12.4096 1.69159C12.2395 1.52147 12.1439 1.29074 12.1439 1.05015C12.1439 0.809562 12.2395 0.578829 12.4096 0.408708C12.5797 0.238588 12.8105 0.143015 13.0511 0.143015C15.4561 0.145656 17.7619 1.10223 19.4626 2.80287C21.1632 4.5035 22.1198 6.8093 22.1224 9.21436C22.1224 9.45494 22.0268 9.68568 21.8567 9.8558C21.6866 10.0259 21.4559 10.1215 21.2153 10.1215ZM18.4939 9.21436C18.4939 7.77083 17.9204 6.38644 16.8997 5.36571C15.879 4.34499 14.4946 3.77155 13.0511 3.77155C12.8105 3.77155 12.5797 3.86712 12.4096 4.03724C12.2395 4.20737 12.1439 4.4381 12.1439 4.67869C12.1439 4.91927 12.2395 5.15001 12.4096 5.32013C12.5797 5.49025 12.8105 5.58582 13.0511 5.58582C14.0134 5.58582 14.9363 5.96811 15.6168 6.64859C16.2973 7.32908 16.6796 8.25201 16.6796 9.21436C16.6796 9.45494 16.7752 9.68568 16.9453 9.8558C17.1154 10.0259 17.3462 10.1215 17.5867 10.1215C17.8273 10.1215 18.0581 10.0259 18.2282 9.8558C18.3983 9.68568 18.4939 9.45494 18.4939 9.21436ZM20.4741 20.2487L21.2996 19.2972C21.8251 18.77 22.1201 18.0561 22.1201 17.3119C22.1201 16.5676 21.8251 15.8537 21.2996 15.3266C21.2715 15.2985 19.089 13.6194 19.089 13.6194C18.5651 13.1208 17.8693 12.8431 17.1461 12.8441C16.4229 12.8452 15.7279 13.1248 15.2055 13.6248L13.4765 15.0817C12.0652 14.4976 10.7831 13.6404 9.704 12.5594C8.62487 11.4784 7.76993 10.1949 7.18826 8.78256L8.63967 7.05901C9.14015 6.53665 9.42008 5.84152 9.42126 5.1181C9.42244 4.39469 9.14479 3.69864 8.64602 3.17466C8.64602 3.17466 6.9651 0.994814 6.93698 0.966693C6.41942 0.445769 5.71769 0.149385 4.9834 0.141577C4.24912 0.133769 3.54124 0.415164 3.01272 0.924964L1.96952 1.8321C-4.19355 8.98213 9.07782 22.151 16.4637 21.9142C17.2095 21.9186 17.9487 21.7734 18.6375 21.4874C19.3263 21.2013 19.9508 20.7801 20.4741 20.2487Z" fill="#1E1E1E"/>
</svg>
