<svg width="21" height="13" viewBox="0 0 21 13" fill="none" xmlns="http://www.w3.org/2000/svg">
<mask id="path-1-outside-1_26_1613" maskUnits="userSpaceOnUse" x="-0.276367" y="-1.43823" width="22" height="15" fill="black">
<rect fill="white" x="-0.276367" y="-1.43823" width="22" height="15"/>
<path d="M0.911633 0.249767H8.74163V2.13977H3.07163V5.43377H7.66163V7.32377H3.07163V10.6718H8.74163V12.5618H0.911633V0.249767ZM20.5118 0.249767V12.5618H16.8758L13.2758 2.13977H13.0598V12.5618H10.8998V0.249767H14.6258L18.1178 10.6718H18.3518V0.249767H20.5118Z"/>
</mask>
<path d="M0.911633 0.249767H8.74163V2.13977H3.07163V5.43377H7.66163V7.32377H3.07163V10.6718H8.74163V12.5618H0.911633V0.249767ZM20.5118 0.249767V12.5618H16.8758L13.2758 2.13977H13.0598V12.5618H10.8998V0.249767H14.6258L18.1178 10.6718H18.3518V0.249767H20.5118Z" fill="black"/>
<path d="M0.911633 0.249767V-0.750233H-0.0883672V0.249767H0.911633ZM8.74163 0.249767H9.74163V-0.750233H8.74163V0.249767ZM8.74163 2.13977V3.13977H9.74163V2.13977H8.74163ZM3.07163 2.13977V1.13977H2.07163V2.13977H3.07163ZM3.07163 5.43377H2.07163V6.43377H3.07163V5.43377ZM7.66163 5.43377H8.66163V4.43377H7.66163V5.43377ZM7.66163 7.32377V8.32377H8.66163V7.32377H7.66163ZM3.07163 7.32377V6.32377H2.07163V7.32377H3.07163ZM3.07163 10.6718H2.07163V11.6718H3.07163V10.6718ZM8.74163 10.6718H9.74163V9.67177H8.74163V10.6718ZM8.74163 12.5618V13.5618H9.74163V12.5618H8.74163ZM0.911633 12.5618H-0.0883672V13.5618H0.911633V12.5618ZM0.911633 1.24977H8.74163V-0.750233H0.911633V1.24977ZM7.74163 0.249767V2.13977H9.74163V0.249767H7.74163ZM8.74163 1.13977H3.07163V3.13977H8.74163V1.13977ZM2.07163 2.13977V5.43377H4.07163V2.13977H2.07163ZM3.07163 6.43377H7.66163V4.43377H3.07163V6.43377ZM6.66163 5.43377V7.32377H8.66163V5.43377H6.66163ZM7.66163 6.32377H3.07163V8.32377H7.66163V6.32377ZM2.07163 7.32377V10.6718H4.07163V7.32377H2.07163ZM3.07163 11.6718H8.74163V9.67177H3.07163V11.6718ZM7.74163 10.6718V12.5618H9.74163V10.6718H7.74163ZM8.74163 11.5618H0.911633V13.5618H8.74163V11.5618ZM1.91163 12.5618V0.249767H-0.0883672V12.5618H1.91163ZM20.5118 0.249767H21.5118V-0.750233H20.5118V0.249767ZM20.5118 12.5618V13.5618H21.5118V12.5618H20.5118ZM16.8758 12.5618L15.9306 12.8883L16.1632 13.5618H16.8758V12.5618ZM13.2758 2.13977L14.221 1.81327L13.9884 1.13977H13.2758V2.13977ZM13.0598 2.13977V1.13977H12.0598V2.13977H13.0598ZM13.0598 12.5618V13.5618H14.0598V12.5618H13.0598ZM10.8998 12.5618H9.89981V13.5618H10.8998V12.5618ZM10.8998 0.249767V-0.750233H9.89981V0.249767H10.8998ZM14.6258 0.249767L15.574 -0.0679339L15.3454 -0.750233H14.6258V0.249767ZM18.1178 10.6718L17.1696 10.9895L17.3982 11.6718H18.1178V10.6718ZM18.3518 10.6718V11.6718H19.3518V10.6718H18.3518ZM18.3518 0.249767V-0.750233H17.3518V0.249767H18.3518ZM19.5118 0.249767V12.5618H21.5118V0.249767H19.5118ZM20.5118 11.5618H16.8758V13.5618H20.5118V11.5618ZM17.821 12.2353L14.221 1.81327L12.3306 2.46626L15.9306 12.8883L17.821 12.2353ZM13.2758 1.13977H13.0598V3.13977H13.2758V1.13977ZM12.0598 2.13977V12.5618H14.0598V2.13977H12.0598ZM13.0598 11.5618H10.8998V13.5618H13.0598V11.5618ZM11.8998 12.5618V0.249767H9.89981V12.5618H11.8998ZM10.8998 1.24977H14.6258V-0.750233H10.8998V1.24977ZM13.6776 0.567469L17.1696 10.9895L19.066 10.3541L15.574 -0.0679339L13.6776 0.567469ZM18.1178 11.6718H18.3518V9.67177H18.1178V11.6718ZM19.3518 10.6718V0.249767H17.3518V10.6718H19.3518ZM18.3518 1.24977H20.5118V-0.750233H18.3518V1.24977Z" fill="#E8ECF4" mask="url(#path-1-outside-1_26_1613)"/>
</svg>
